/* XPM */
static char *menu_pressed[] = {
/* columns rows colors chars-per-pixel */
"28 32 4 1 ",
"  c #1E1F29",
". c #2D2E37",
"X c #3385F5",
"o c #ECEFF1",
/* pixels */
"............................",
"                            ",
"                            ",
"                            ",
"                            ",
"                            ",
"                            ",
"                            ",
"                            ",
"                            ",
"                            ",
"                            ",
"          oooooooo          ",
"          oooooooo          ",
"                            ",
"          oooooooo          ",
"          oooooooo          ",
"                            ",
"          oooooooo          ",
"          oooooooo          ",
"                            ",
"                            ",
"                            ",
"                            ",
"                            ",
"                            ",
"                            ",
"  XXXXXXXXXXXXXXXXXXXXXXXX  ",
"  XXXXXXXXXXXXXXXXXXXXXXXX  ",
"                            ",
"                            ",
"                            "
};
